<svg width="14" height="14" viewBox="0 0 14 14" fill="none" xmlns="http://www.w3.org/2000/svg">
<path d="M12.3333 2.1C12.5101 2.1 12.6797 2.17375 12.8047 2.30503C12.9298 2.4363 13 2.61435 13 2.8C13 2.98565 12.9298 3.1637 12.8047 3.29497C12.6797 3.42625 12.5101 3.5 12.3333 3.5H11.6667L11.6647 3.5497L11.0427 12.6994C11.0187 13.0526 10.8682 13.3832 10.6214 13.6245C10.3746 13.8658 10.0499 14 9.71267 14H4.28667C3.94943 14 3.62471 13.8658 3.37792 13.6245C3.13114 13.3832 2.98061 13.0526 2.95667 12.6994L2.33467 3.5504C2.33366 3.53362 2.33321 3.51681 2.33333 3.5H1.66667C1.48986 3.5 1.32029 3.42625 1.19526 3.29497C1.07024 3.1637 1 2.98565 1 2.8C1 2.61435 1.07024 2.4363 1.19526 2.30503C1.32029 2.17375 1.48986 2.1 1.66667 2.1H12.3333ZM10.3313 3.5H3.66867L4.28733 12.6H9.71267L10.3313 3.5ZM8.33333 0C8.51014 0 8.67971 0.0737498 8.80474 0.205025C8.92976 0.336301 9 0.514348 9 0.7C9 0.885652 8.92976 1.0637 8.80474 1.19497C8.67971 1.32625 8.51014 1.4 8.33333 1.4H5.66667C5.48986 1.4 5.32029 1.32625 5.19526 1.19497C5.07024 1.0637 5 0.885652 5 0.7C5 0.514348 5.07024 0.336301 5.19526 0.205025C5.32029 0.0737498 5.48986 0 5.66667 0H8.33333Z" fill="#C9DDFF"/>
</svg>
