<svg width="14" height="14" viewBox="0 0 14 14" fill="none" xmlns="http://www.w3.org/2000/svg">
<path d="M3.05882 3.74512H2.37255C2.00853 3.74512 1.65941 3.88972 1.40201 4.14713C1.14461 4.40453 1 4.75364 1 5.11767V11.2941C1 11.6582 1.14461 12.0073 1.40201 12.2647C1.65941 12.5221 2.00853 12.6667 2.37255 12.6667H8.54902C8.91305 12.6667 9.26216 12.5221 9.51956 12.2647C9.77697 12.0073 9.92157 11.6582 9.92157 11.2941V10.6079" stroke="#C9DDFF" stroke-width="1.2" stroke-linecap="round" stroke-linejoin="round"/>
<path d="M9.23557 2.37262L11.2944 4.43145M12.2449 3.46037C12.5152 3.19008 12.667 2.82349 12.667 2.44125C12.667 2.05901 12.5152 1.69242 12.2449 1.42213C11.9746 1.15185 11.608 1 11.2258 1C10.8435 1 10.4769 1.15185 10.2066 1.42213L4.43164 7.17655V9.23537H6.49047L12.2449 3.46037Z" stroke="#C9DDFF" stroke-width="1.2" stroke-linecap="round" stroke-linejoin="round"/>
</svg>
